<?xml version="1.0" encoding="UTF-8"?> <svg xmlns="http://www.w3.org/2000/svg" width="151" height="220"><g fill="#0C53CB" fill-rule="nonzero"><path d="M53.9 143.943v-2.2c-.629.786-1.1 1.571-1.414 2.514.471 0 .943-.157 1.414-.314M56.886 115.814h-1.572v2.2c.472.472.943.786 1.572 1.257v-3.457ZM58.3 128.071a2.17 2.17 0 0 0-.471-.628v4.243c.628-1.1.942-2.2.471-3.615"></path><path d="M106.386 142.686 91.457 155.57l-16.657 14.3v-32.528h31.586v5.343ZM47.3 149.757c0-.471.157-.943.314-1.414h18.229c.157.471.314 1.1.314 1.571l-18.857-.157Zm-16.971-47.771H40.7c0-.786-.157-1.572-.157-2.357h-11c-.157-.629-.314-1.415-.314-2.2l11.314-.158c.157-13.2 3.771-31.271 11-34.885 1.1-.472 2.043-.629 3.143-.629h1.1c5.971.472 10.685 4.086 12.728 11.157.786 2.357 1.886 6.443 1.886 6.443.157.472.157 1.1 0 1.729l-.314-.472-1.729 1.572 1.414-2.2-1.728-3.457-1.1-.315 1.1 1.886.786 1.414-.943-.943-.315 1.415v-1.729l-1.1-1.571.315.628 1.1 5.5c-.786-.157-1.415-.943-1.729-1.885 0 0-1.1-4.243-1.728-5.815-2.043-5.5-5.815-9.271-11.472-7.7C47.3 69.771 45.1 85.957 45.1 97.271l37.4-.314c0 .943-.157 1.729-.314 2.672H45.1c0 .785 0 1.728.157 2.357H81.4c-3.143 6.757-12.414 11.785-23.571 12.257v5.971c1.414 1.257 2.671 2.672 3.928 4.557 2.672 3.929 1.886 7.072-.628 10.686a14.292 14.292 0 0 1-3.3 2.829v5.343c2.671.157 5.185 1.257 6.6 2.671h-13.2c-.629.314-1.258.471-1.886.157-.157 0-.157-.157-.314-.157h-.158c-.785-.629-1.257-2.043-.785-3.143 1.257-3.3 3.614-5.657 5.657-7.543v-12.1c-1.729-1.571-3.614-3.143-5.5-5.343-1.414-1.728-3.3-3.457-4.714-5.657-6.129-2.2-11-5.971-13.2-10.528M69.3 89.57c0 .315-.157.629-.314.943-.157.315-.472.315-.786.315h-.314c-.472-.158-.786-.629-.786-1.258 0-.628.314-1.1.786-1.257h.314c.314 0 .471.157.786.315.157.314.314.628.314.942m1.729-3.457c0 .786-.472 1.257-1.1 1.257-.315 0-.472-.157-.786-.314-.157-.314-.314-.628-.314-.943 0-.314.157-.628.314-.943.157-.314.471-.314.786-.314.628 0 1.1.472 1.1 1.257m.628 5.972c.314.157.629.628.629 1.257 0 .628-.315.943-.629 1.257-.157 0-.314.157-.471.157-.315 0-.472-.157-.786-.314-.157-.314-.314-.629-.314-.943 0-.314.157-.629.314-.943.157-.314.471-.314.786-.314.157-.314.314-.314.471-.157m70.086-1.729.157-26.243 8.957-8.328-25.143-26.715-19.171 19.172c0 14.143-.157 28.128-.157 42.114h.157v.629H74.8c.471-23.729 0-26.4 0-50.443V28.757L41.957 0 20.743 44.157 37.87 57.514l.158 7.857v25.615H21.057l.472 46.671h17.128l.157 11.314-7.857-4.714L0 173.8 85.171 220l21.058-18.229v.158l-14.3 12.571 22.942-20.114 27.186-23.729v-33.314L141.9 97.9l-.157-7.543Z"></path><path d="M56.886 139.071c-.472.315-1.1.786-1.572 1.258v2.042h1.572v-3.3ZM67.729 74.957c.471 0 .785-.471.785-.943H67.1c0 .629.314.943.629.943M53.9 116.757v-2.514c-.943 0-1.729-.157-2.671-.157 0 .157.157.157.157.314.785.786 1.571 1.571 2.514 2.357M56.886 132.786v-6.6l-1.572-1.572v9.586c.629-.471 1.1-.943 1.572-1.414"></path></g></svg> 